<svg width="40" height="43" xmlns="http://www.w3.org/2000/svg" xmlns:xlink="http://www.w3.org/1999/xlink" overflow="hidden"><g transform="translate(-434 -526)"><path d="M436 545.5C436 543.015 438.015 541 440.5 541L467.5 541C469.985 541 472 543.015 472 545.5L472 563.5C472 565.985 469.985 568 467.5 568L440.5 568C438.015 568 436 565.985 436 563.5Z" stroke="#32324C" stroke-width="2" stroke-miterlimit="8" fill="#E7E6E6" fill-rule="evenodd"/><path d="M441 545.333C441 542.94 442.94 541 445.333 541L467.667 541C470.06 541 472 542.94 472 545.333L472 562.667C472 565.06 470.06 567 467.667 567L445.333 567C442.94 567 441 565.06 441 562.667Z" fill="#FFFFFF" fill-rule="evenodd"/><path d="M441 554.5C441 549.253 445.253 545 450.5 545L459.5 545C464.747 545 469 549.253 469 554.5L469 554.5C469 559.747 464.747 564 459.5 564L450.5 564C445.253 564 441 559.747 441 554.5Z" fill="#32324C" fill-rule="evenodd"/><path d="M446 554.5C446 553.119 446.895 552 448 552 449.105 552 450 553.119 450 554.5 450 555.881 449.105 557 448 557 446.895 557 446 555.881 446 554.5Z" fill="#CAE779" fill-rule="evenodd"/><path d="M460 554.5C460 553.119 461.119 552 462.5 552 463.881 552 465 553.119 465 554.5 465 555.881 463.881 557 462.5 557 461.119 557 460 555.881 460 554.5Z" fill="#CAE779" fill-rule="evenodd"/><path d="M442.628 531.159C443.198 530.884 443.882 531.123 444.157 531.693L447.648 538.934C447.923 539.503 447.683 540.188 447.114 540.463L446.578 540.721C446.008 540.996 445.323 540.757 445.048 540.187L441.557 532.946C441.283 532.376 441.522 531.692 442.092 531.417Z" fill="#32324C" fill-rule="evenodd"/><path d="M439.5 531.5C439.5 529.843 440.843 528.5 442.5 528.5 444.157 528.5 445.5 529.843 445.5 531.5 445.5 533.157 444.157 534.5 442.5 534.5 440.843 534.5 439.5 533.157 439.5 531.5Z" stroke="#32324C" stroke-width="1.33333" stroke-miterlimit="8" fill="#A7C96E" fill-rule="evenodd"/><path d="M466.115 532.023C466.663 532.339 466.851 533.04 466.535 533.587L462.516 540.549C462.199 541.096 461.499 541.284 460.951 540.968L460.436 540.67C459.888 540.354 459.7 539.654 460.016 539.106L464.035 532.144C464.352 531.597 465.052 531.409 465.6 531.725Z" fill="#32324C" fill-rule="evenodd"/><path d="M463.5 532C463.5 530.619 464.843 529.5 466.5 529.5 468.157 529.5 469.5 530.619 469.5 532 469.5 533.381 468.157 534.5 466.5 534.5 464.843 534.5 463.5 533.381 463.5 532Z" stroke="#32324C" stroke-width="1.33333" stroke-miterlimit="8" fill="#A7C96E" fill-rule="evenodd"/><path d="M459 558.5C459 559.881 457.209 561 455 561 452.814 561 451.033 559.903 451 558.537L455 558.5Z" fill="#CAE779" fill-rule="evenodd"/><path d="M447.5 534.2 449.778 528.5 452.861 534.5 454.737 528.65 457.15 533.75 458.356 531.05 460.5 531.2" stroke="#32324C" stroke-width="1.33333" stroke-miterlimit="8" fill="none" fill-rule="evenodd"/></g></svg>